<svg width="32" height="32" viewBox="0 0 32 32" fill="none" xmlns="http://www.w3.org/2000/svg">
<path d="M16.0014 0.375C11.758 0.375 11.2253 0.393594 9.55875 0.469375C7.89531 0.545625 6.75984 0.808906 5.76641 1.19531C4.73859 1.59438 3.86688 2.12828 2.99844 2.99703C2.12922 3.86562 1.59531 4.73734 1.195 5.76469C0.8075 6.75844 0.543906 7.89437 0.469062 9.55703C0.394531 11.2238 0.375 11.7566 0.375 16.0002C0.375 20.2438 0.39375 20.7747 0.469375 22.4412C0.545938 24.1047 0.809219 25.2402 1.19531 26.2336C1.59469 27.2614 2.12859 28.1331 2.99734 29.0016C3.86563 29.8708 4.73734 30.4059 5.76438 30.805C6.75859 31.1914 7.89422 31.4547 9.55734 31.5309C11.2241 31.6067 11.7563 31.6253 15.9995 31.6253C20.2434 31.6253 20.7744 31.6067 22.4409 31.5309C24.1044 31.4547 25.2411 31.1914 26.2353 30.805C27.2627 30.4059 28.1331 29.8708 29.0012 29.0016C29.8705 28.1331 30.4042 27.2614 30.8047 26.2341C31.1887 25.2402 31.4525 24.1044 31.5306 22.4416C31.6055 20.775 31.625 20.2438 31.625 16.0002C31.625 11.7566 31.6055 11.2241 31.5306 9.55734C31.4525 7.89391 31.1887 6.75859 30.8047 5.76516C30.4042 4.73734 29.8705 3.86562 29.0012 2.99703C28.1322 2.12797 27.263 1.59406 26.2344 1.19547C25.2383 0.808906 24.1022 0.545469 22.4387 0.469375C20.772 0.393594 20.2414 0.375 15.9966 0.375H16.0014ZM14.5997 3.19078C15.0158 3.19016 15.48 3.19078 16.0014 3.19078C20.1734 3.19078 20.6678 3.20578 22.3153 3.28063C23.8387 3.35031 24.6656 3.60484 25.2164 3.81875C25.9456 4.10188 26.4655 4.44047 27.012 4.9875C27.5589 5.53438 27.8973 6.05516 28.1813 6.78437C28.3952 7.33437 28.65 8.16125 28.7194 9.68469C28.7942 11.3319 28.8105 11.8266 28.8105 15.9966C28.8105 20.1666 28.7942 20.6614 28.7194 22.3084C28.6497 23.8319 28.3952 24.6587 28.1813 25.2089C27.8981 25.9381 27.5589 26.4573 27.012 27.0039C26.4652 27.5508 25.9459 27.8892 25.2164 28.1725C24.6663 28.3873 23.8387 28.6413 22.3153 28.7109C20.6681 28.7858 20.1734 28.802 16.0014 28.802C11.8292 28.802 11.3347 28.7858 9.68766 28.7109C8.16422 28.6406 7.33734 28.3861 6.78609 28.1722C6.05703 27.8889 5.53609 27.5505 4.98922 27.0036C4.44234 26.4567 4.10391 25.9372 3.82 25.2077C3.60609 24.6575 3.35125 23.8306 3.28188 22.3072C3.20703 20.66 3.19203 20.1653 3.19203 15.9927C3.19203 11.82 3.20703 11.328 3.28188 9.68078C3.35156 8.15734 3.60609 7.33047 3.82 6.77969C4.10328 6.05047 4.44234 5.52969 4.98938 4.98281C5.53641 4.43594 6.05703 4.09734 6.78625 3.81359C7.33703 3.59875 8.16422 3.34484 9.68766 3.27484C11.1291 3.20969 11.6877 3.19016 14.5997 3.18687V3.19078ZM24.342 5.78516C23.3069 5.78516 22.467 6.62422 22.467 7.65953C22.467 8.69469 23.3069 9.53453 24.342 9.53453C25.3772 9.53453 26.217 8.69469 26.217 7.65953C26.217 6.62438 25.3772 5.78453 24.342 5.78453V5.78516ZM16.0014 7.97594C11.5702 7.97594 7.97734 11.5688 7.97734 16.0002C7.97734 20.4316 11.5702 24.0227 16.0014 24.0227C20.4328 24.0227 24.0244 20.4316 24.0244 16.0002C24.0244 11.5689 20.4325 7.97594 16.0011 7.97594H16.0014ZM16.0014 10.7917C18.8778 10.7917 21.2098 13.1234 21.2098 16.0002C21.2098 18.8766 18.8778 21.2086 16.0014 21.2086C13.125 21.2086 10.7931 18.8766 10.7931 16.0002C10.7931 13.1234 13.1248 10.7917 16.0014 10.7917Z" fill="white"/>
</svg>
