<svg width="53" height="54" viewBox="0 0 53 54" fill="none" xmlns="http://www.w3.org/2000/svg">
<path d="M26.4999 44.9993C36.2569 44.9993 44.1666 36.9404 44.1666 26.9993C44.1666 17.0581 36.2569 8.99927 26.4999 8.99927C16.7429 8.99927 8.83325 17.0581 8.83325 26.9993C8.83325 36.9404 16.7429 44.9993 26.4999 44.9993Z" fill="#FCEA2B"/>
<path d="M37.9685 25.9155C38.4802 26.9459 38.7855 28.0697 38.8666 29.2215C31.6254 35.4255 22.2143 37.938 20.7023 38.31C19.8796 37.5667 19.2083 36.6659 18.7266 35.6588L18.7987 35.622C18.7987 35.622 29.7314 33.093 37.8662 26.0258L37.9685 25.9155Z" fill="white"/>
<path d="M38.8659 29.2214C39.0846 32.6864 37.0485 36.1964 32.21 38.6467C27.3259 41.1202 23.2876 40.6274 20.7024 38.3099C22.2136 37.9379 31.6255 35.4254 38.8659 29.2214Z" fill="#EA5A47"/>
<path d="M49.8295 24.6819C49.6992 25.0783 49.4935 25.4447 49.224 25.7601C48.9546 26.0754 48.6268 26.3335 48.2594 26.5197C47.892 26.7058 47.4921 26.8163 47.0828 26.8448C46.6734 26.8733 46.2625 26.8193 45.8736 26.6859C42.9409 25.6816 40.9564 21.6706 40.9365 21.6309C41.0933 21.5619 44.9461 19.6531 47.8633 20.6514C48.2523 20.7843 48.6117 20.994 48.9211 21.2685C49.2304 21.5431 49.4836 21.8771 49.6662 22.2514C49.8487 22.6258 49.957 23.0331 49.9849 23.4502C50.0128 23.8672 49.9605 24.2858 49.8295 24.6819ZM10.5962 44.5486C10.2071 44.4159 9.84752 44.2063 9.538 43.9318C9.22849 43.6573 8.97514 43.3233 8.79246 42.9489C8.60977 42.5746 8.50133 42.1672 8.47333 41.7501C8.44534 41.333 8.49835 40.9143 8.62933 40.5181C9.61499 37.5301 13.5517 35.5081 13.5907 35.4879C13.6577 35.6476 15.5318 39.5731 14.5513 42.5454C14.421 42.9417 14.2152 43.3079 13.9458 43.6231C13.6764 43.9383 13.3487 44.1963 12.9814 44.3824C12.614 44.5684 12.2143 44.6789 11.805 44.7074C11.3958 44.7359 10.985 44.682 10.5962 44.5486Z" fill="#92D3F5"/>
<path d="M40.69 17.5866L40.6215 17.4809C38.3514 13.9851 34.9097 11.4509 30.9395 10.3519C26.9694 9.25283 22.7423 9.6641 19.048 11.5088C15.3537 13.3536 12.445 16.5056 10.8652 20.376C9.28546 24.2464 9.14276 28.5704 10.4638 32.5401L10.5668 32.8394M18.43 42.1649C20.8279 43.4527 23.4891 44.1492 26.1994 44.1982C28.9097 44.2471 31.5935 43.6473 34.0348 42.4469C36.4437 41.2043 38.5312 39.4008 40.1281 37.1825C41.725 34.9643 42.7862 32.3939 43.2259 29.6796M37.9686 25.9154C38.4803 26.9457 38.7856 28.0696 38.8666 29.2214C31.6255 35.4254 22.2143 37.9379 20.7023 38.3099C19.8796 37.5666 19.2083 36.6657 18.7266 35.6586L18.7988 35.6219C18.7988 35.6219 29.7315 33.0929 37.8662 26.0256L37.9686 25.9154Z" stroke="black" stroke-width="2" stroke-linecap="round" stroke-linejoin="round"/>
<path d="M38.8659 29.2214C39.0846 32.6864 37.0485 36.1964 32.21 38.6467C27.3259 41.1202 23.2876 40.6274 20.7024 38.3099C22.2136 37.9379 31.6255 35.4254 38.8659 29.2214Z" stroke="black" stroke-width="2" stroke-linecap="round" stroke-linejoin="round"/>
<path d="M49.8295 24.6816C49.6992 25.0781 49.4935 25.4445 49.224 25.7598C48.9546 26.0752 48.6268 26.3333 48.2594 26.5194C47.892 26.7056 47.4921 26.816 47.0828 26.8446C46.6734 26.8731 46.2625 26.8191 45.8736 26.6856C42.9409 25.6814 40.9564 21.6704 40.9365 21.6306C41.0933 21.5616 44.9461 19.6529 47.8633 20.6511C48.2523 20.784 48.6117 20.9937 48.9211 21.2683C49.2304 21.5429 49.4836 21.8769 49.6662 22.2512C49.8487 22.6256 49.957 23.0329 49.9849 23.4499C50.0128 23.867 49.9605 24.2855 49.8295 24.6816ZM10.5962 44.5484C10.2071 44.4156 9.84752 44.206 9.538 43.9315C9.22849 43.657 8.97514 43.3231 8.79246 42.9487C8.60977 42.5743 8.50133 42.1669 8.47333 41.7498C8.44534 41.3327 8.49835 40.9141 8.62933 40.5179C9.61499 37.5299 13.5517 35.5079 13.5907 35.4876C13.6577 35.6474 15.5318 39.5729 14.5513 42.5451C14.421 42.9414 14.2152 43.3076 13.9458 43.6229C13.6764 43.9381 13.3487 44.1961 12.9814 44.3821C12.614 44.5682 12.2143 44.6786 11.805 44.7072C11.3958 44.7357 10.985 44.6817 10.5962 44.5484Z" stroke="black" stroke-width="2" stroke-linejoin="round"/>
<path d="M16.5461 24.8475L22.2032 25.3447L19.0857 30.054M30.8267 17.616L27.7998 22.5105L33.3663 22.8225" stroke="black" stroke-width="2" stroke-linecap="round" stroke-linejoin="round"/>
</svg>
