<svg width="20" height="20" viewBox="0 0 20 20" fill="none" xmlns="http://www.w3.org/2000/svg">
<path d="M0.329596 6.64604H4.47471V20H0.329596V6.64604ZM2.4033 0C2.87872 2.15884e-07 3.34346 0.141187 3.73873 0.405699C4.134 0.67021 4.44204 1.04616 4.62387 1.48599C4.8057 1.92583 4.85316 2.40978 4.76024 2.87662C4.66733 3.34346 4.43821 3.77223 4.10187 4.10866C3.76554 4.4451 3.3371 4.6741 2.87075 4.76669C2.40441 4.85928 1.92111 4.8113 1.48201 4.62882C1.0429 4.44634 0.667718 4.13756 0.403916 3.74154C0.140114 3.34552 -0.000451695 2.88006 1.09043e-06 2.40403C0.000607755 1.76623 0.254079 1.15476 0.704719 0.703986C1.15536 0.253208 1.7663 -2.89252e-07 2.4033 0ZM7.07485 6.64604H11.0483V8.47943H11.1032C11.6571 7.42982 13.0076 6.32291 15.024 6.32291C19.2218 6.31374 20 9.07987 20 12.6664V20H15.8549V13.5029C15.8549 11.956 15.8274 9.96448 13.7011 9.96448C11.5747 9.96448 11.2131 11.6512 11.2131 13.4021V20H7.07485V6.64604Z" fill="white"/>
</svg>
